<svg width="150" height="150" viewBox="0 0 150 150" fill="none" xmlns="http://www.w3.org/2000/svg">
<path d="M124 35.8001L123.4 36.7001L122.8 37.5001L122.2 38.2001L121.4 38.8001L120.6 39.3001L119.8 39.7001L119.2 39.8001L119.5 38.6001L119.8 37.2001V36.6001V35.9001L119.7 35.2001L119.5 34.6001L118.9 33.2001L118.2 31.9001L114.8 26.0001L126.4 24.1001L126.3 26.2001L126.1 28.3001L125.8 30.3001L125.3 32.2001L124.7 34.0001L124 35.8001Z" fill="#F1F5F9" stroke="#64748B" stroke-width="1.5" stroke-miterlimit="10" stroke-linejoin="round"/>
<path d="M37.8 99.1L90.2 84.5L106.9 90.5L110 91.7L57.9 108.3L37.8 99.1Z" fill="#F1F5F9" stroke="#64748B" stroke-width="1.5" stroke-miterlimit="10" stroke-linejoin="round"/>
<path d="M119.2 39.8V39.9L118.8 41.1L117.5 44.2L116.1 47.2L111.6 56.6L107.2 65.6L105.8 68.3L104.4 70.8L103.8 71.8L103.3 72.4L103.2 72.5L102.8 72.9L102.5 73.2L102.1 73.5L101.7 73.6H101.3H100.8L100.5 73.5L93.2 69.6L91.3 68.6H91.2L91.4 68.2L110.3 26.7L114.8 26L118.2 31.9L118.9 33.2L119.5 34.6L119.7 35.2L119.8 35.9V36.6V37.2L119.5 38.6L119.2 39.8Z" fill="#F1F5F9" stroke="#64748B" stroke-width="1.5" stroke-miterlimit="10" stroke-linejoin="round"/>
<path d="M110 91.6999L90.2 84.4999L91 68.8999L93.2 69.5999L100.5 73.4999L100.8 73.5999H101.3H101.7L102.1 73.4999L102.5 73.1999L102.8 72.8999L136 83.3999L110 91.6999Z" fill="#E2E8F0" stroke="#64748B" stroke-width="1.5" stroke-miterlimit="10" stroke-linejoin="round"/>
<path d="M57.3 128.1L57.9 108.3L110 91.6999L136 83.3999L134.5 100.2L57.3 128.1Z" fill="#F8FAFC" stroke="#64748B" stroke-width="1.5" stroke-miterlimit="10" stroke-linejoin="round"/>
<path d="M41.9 53.8002L42.5 52.9002L43.1 52.0002L43.6 50.9002L44.2 48.8002L44.8 46.6002L45.2 44.4002L45.4 42.0002L45.6 39.5002V37.0002L110.3 26.7002L91.4 68.2002L91.2 68.6002L32 83.5002L35.3 74.4002L39.1 63.6002L40.2 60.1002L41.3 56.5002L41.6 55.1002L41.8 53.8002H41.9Z" fill="#F8FAFC" stroke="#64748B" stroke-width="1.5" stroke-miterlimit="10" stroke-linejoin="round"/>
<path d="M32.5 33.8999H32.3L32.4 33.7999L112.6 21.8999H112.7H113.1L126 24.0999H126.4L114.8 25.9999L110.3 26.6999L45.6 36.9999L32.5 33.8999Z" fill="#F1F5F9" stroke="#64748B" stroke-width="1.5" stroke-miterlimit="10" stroke-linejoin="round"/>
<path d="M42.5 52.8999L41.9 53.7999H41.8L41.1 54.4999L40.4 54.9999L39.6 55.3999L38.7 55.5999H37.8H36.9L36 55.2999L35.4 55.0999L34.9 54.6999L34.4 54.1999L34 53.5999L33.5 52.9999L33.2 52.2999L32.9 51.4999L32.6 50.4999L32.4 49.4999L32.2 48.4999V47.3999V33.8999H32.3H32.5L45.6 36.9999V39.4999L45.4 41.9999L45.2 44.3999L44.8 46.5999L44.2 48.7999L43.6 50.8999L43.1 51.9999L42.5 52.8999Z" fill="#F1F5F9" stroke="#64748B" stroke-width="1.5" stroke-miterlimit="10" stroke-linejoin="round"/>
<path d="M28 92.7001L28.6 91.8001L29.1 90.7001L30.3 87.8001L31.5 84.8001L32 83.5001L91.2 68.6001L91 68.9001L90.2 84.5001L37.8 99.1001L26.8 94.0001L28 92.7001Z" fill="#F8FAFC" stroke="#64748B" stroke-width="1.5" stroke-miterlimit="10" stroke-linejoin="round"/>
<path d="M57.9 108.3L57.3 128.1L14.1 105.8L14 88.2002L57.9 108.3Z" fill="#F1F5F9" stroke="#64748B" stroke-width="1.5" stroke-miterlimit="10" stroke-linejoin="round"/>
<path d="M40.4 54.9999L41.1 54.4999L41.8 53.7999L41.6 55.0999L41.3 56.4999L40.2 60.0999L39.1 63.5999L35.3 74.3999L32 83.4999L31.5 84.7999L30.3 87.7999L29.1 90.6999L28.6 91.7999L28 92.6999L26.8 93.9999L14 88.1999L32.2 33.9999V33.8999V47.3999V48.4999L32.4 49.4999L32.6 50.4999L32.9 51.4999L33.2 52.2999L33.5 52.9999L34 53.5999L34.4 54.1999L34.9 54.6999L35.4 55.0999L36 55.2999L36.9 55.5999H37.8H38.7L39.6 55.3999L40.4 54.9999Z" fill="#F1F5F9" stroke="#64748B" stroke-width="1.5" stroke-miterlimit="10" stroke-linejoin="round"/>
<path d="M126.4 24.1001H126" stroke="#64748B" stroke-width="1.5" stroke-miterlimit="10" stroke-linecap="round" stroke-linejoin="round"/>
</svg>
