<svg width="150" height="150" viewBox="0 0 150 150" fill="none" xmlns="http://www.w3.org/2000/svg">
<path d="M115 15H35.9L36.4 16L47.3 38.9L50.6 45.9L134.2 40.9L115 15Z" fill="#F1F5F9" stroke="#64748B" stroke-width="1.5" stroke-miterlimit="10" stroke-linejoin="round"/>
<path d="M17.6 99.7998L29.4 129L50.6 121.6L17.6 99.7998Z" fill="#E2E8F0" stroke="#64748B" stroke-width="1.5" stroke-miterlimit="10" stroke-linejoin="round"/>
<path d="M38.7999 137L112.8 117L131.6 103.2L51.7999 122.4L38.7999 137Z" fill="#F1F5F9" stroke="#64748B" stroke-width="1.5" stroke-miterlimit="10" stroke-linejoin="round"/>
<path d="M50.6 45.8999L51.8 122.4L131.6 103.2L134.2 40.8999L50.6 45.8999Z" fill="#F8FAFC" stroke="#64748B" stroke-width="1.5" stroke-miterlimit="10" stroke-linejoin="round"/>
<path d="M15.8 40.2002L17.6 99.8002L50.6 121.6L51.8 122.4L50.6 45.9002L15.8 40.2002Z" fill="#E2E8F0" stroke="#64748B" stroke-width="1.5" stroke-miterlimit="10" stroke-linejoin="round"/>
<path d="M36.4001 16H26.5L15.8 40.2L47.3 38.9L36.4001 16Z" fill="#F1F5F9" stroke="#64748B" stroke-width="1.5" stroke-miterlimit="10" stroke-linejoin="round"/>
<path d="M47.3 38.8999L15.8 40.1999L50.6 45.8999L47.3 38.8999Z" fill="#DCE4EA" stroke="#64748B" stroke-width="1.5" stroke-miterlimit="10" stroke-linecap="round" stroke-linejoin="round"/>
</svg>
